<svg width="349" height="100" viewBox="0 0 349 100" fill="none" xmlns="http://www.w3.org/2000/svg">
<circle cx="50" cy="50" r="50" fill="#EF7712"/>
<ellipse cx="50" cy="46.5" rx="50" ry="46.5" fill="url(#paint0_linear_204_5)"/>
<path d="M31 27H61C66.5228 27 71 31.4772 71 37V39C71 44.5228 66.5228 49 61 49H31V27Z" fill="#D9D9D9"/>
<path d="M31 51H61C66.5228 51 71 55.4772 71 61V63C71 68.5228 66.5228 73 61 73H31V51Z" fill="#D9D9D9"/>
<path d="M128.491 63.4395C126.323 63.4395 124.412 62.9927 122.756 62.0991C121.101 61.2056 119.812 59.8433 118.889 58.0122C117.966 56.1812 117.505 53.874 117.505 51.0908C117.505 48.1758 117.988 45.7954 118.955 43.9497C119.937 42.0894 121.284 40.7124 122.998 39.8188C124.712 38.9253 126.66 38.4785 128.843 38.4785C130.044 38.4785 131.201 38.603 132.314 38.8521C133.442 39.0864 134.365 39.3867 135.083 39.7529L133.984 42.8071C133.252 42.5142 132.402 42.2505 131.436 42.0161C130.483 41.7817 129.59 41.6646 128.755 41.6646C127.085 41.6646 125.693 42.0234 124.58 42.7412C123.481 43.459 122.654 44.5137 122.097 45.9053C121.555 47.2969 121.284 49.0107 121.284 51.0469C121.284 52.9951 121.548 54.6577 122.075 56.0347C122.617 57.4116 123.416 58.4663 124.47 59.1987C125.54 59.9165 126.873 60.2754 128.469 60.2754C129.744 60.2754 130.894 60.1436 131.919 59.8799C132.944 59.6016 133.875 59.2793 134.709 58.9131V62.165C133.904 62.5752 133.003 62.8901 132.007 63.1099C131.025 63.3296 129.854 63.4395 128.491 63.4395ZM162.312 50.915C162.312 52.8926 162.055 54.6577 161.542 56.2104C161.03 57.7632 160.29 59.0742 159.323 60.1436C158.356 61.2129 157.185 62.0332 155.808 62.6045C154.445 63.1611 152.9 63.4395 151.171 63.4395C149.56 63.4395 148.081 63.1611 146.733 62.6045C145.4 62.0332 144.243 61.2129 143.261 60.1436C142.294 59.0742 141.54 57.7632 140.998 56.2104C140.471 54.6577 140.207 52.8926 140.207 50.915C140.207 48.2783 140.654 46.0371 141.547 44.1914C142.441 42.3311 143.715 40.9175 145.371 39.9507C147.041 38.9692 149.025 38.4785 151.325 38.4785C153.522 38.4785 155.441 38.9692 157.082 39.9507C158.737 40.9321 160.019 42.353 160.927 44.2134C161.85 46.0591 162.312 48.293 162.312 50.915ZM143.986 50.915C143.986 52.8486 144.243 54.5259 144.755 55.9468C145.268 57.3677 146.059 58.4663 147.128 59.2427C148.198 60.019 149.575 60.4072 151.259 60.4072C152.929 60.4072 154.299 60.019 155.368 59.2427C156.452 58.4663 157.25 57.3677 157.763 55.9468C158.276 54.5259 158.532 52.8486 158.532 50.915C158.532 48.9961 158.276 47.3408 157.763 45.9492C157.25 44.543 156.459 43.459 155.39 42.6973C154.321 41.9355 152.937 41.5547 151.237 41.5547C148.732 41.5547 146.894 42.3823 145.722 44.0376C144.565 45.6929 143.986 47.9854 143.986 50.915ZM173.39 38.918V63H169.743V38.918H173.39ZM171.61 29.9092C172.211 29.9092 172.724 30.1069 173.148 30.5024C173.588 30.8833 173.808 31.4839 173.808 32.3042C173.808 33.1099 173.588 33.7104 173.148 34.106C172.724 34.5015 172.211 34.6992 171.61 34.6992C170.98 34.6992 170.453 34.5015 170.028 34.106C169.618 33.7104 169.413 33.1099 169.413 32.3042C169.413 31.4839 169.618 30.8833 170.028 30.5024C170.453 30.1069 170.98 29.9092 171.61 29.9092ZM193.653 38.4785C196.51 38.4785 198.67 39.1816 200.135 40.5879C201.6 41.9795 202.333 44.2207 202.333 47.3115V63H198.729V47.5532C198.729 45.5464 198.268 44.0449 197.345 43.0488C196.437 42.0527 195.038 41.5547 193.148 41.5547C190.482 41.5547 188.607 42.3091 187.523 43.8179C186.439 45.3267 185.897 47.5166 185.897 50.3877V63H182.25V38.918H185.194L185.743 42.3896H185.941C186.454 41.54 187.105 40.8296 187.896 40.2583C188.688 39.6724 189.574 39.2329 190.555 38.9399C191.537 38.6323 192.569 38.4785 193.653 38.4785ZM211.17 30.876H221.167C225.445 30.876 228.682 31.4766 230.879 32.6777C233.077 33.8789 234.175 35.9883 234.175 39.0059C234.175 40.2217 233.978 41.3203 233.582 42.3018C233.201 43.2832 232.645 44.0889 231.912 44.7188C231.18 45.3486 230.286 45.7588 229.231 45.9492V46.1689C230.301 46.3887 231.268 46.7695 232.132 47.3115C232.996 47.8389 233.685 48.6152 234.197 49.6406C234.725 50.6514 234.988 51.999 234.988 53.6836C234.988 55.6318 234.512 57.3018 233.56 58.6934C232.608 60.085 231.246 61.1543 229.473 61.9014C227.715 62.6338 225.621 63 223.189 63H211.17V30.876ZM217.981 43.5981H221.937C223.914 43.5981 225.284 43.2905 226.045 42.6753C226.807 42.0454 227.188 41.1226 227.188 39.9067C227.188 38.6763 226.734 37.7974 225.826 37.27C224.932 36.728 223.511 36.457 221.563 36.457H217.981V43.5981ZM217.981 49.0034V57.375H222.42C224.471 57.375 225.899 56.9795 226.705 56.1885C227.51 55.3975 227.913 54.3354 227.913 53.0024C227.913 52.2114 227.737 51.5156 227.386 50.915C227.034 50.3145 226.441 49.8457 225.606 49.5088C224.786 49.1719 223.65 49.0034 222.2 49.0034H217.981ZM252.065 37.9292C255.361 37.9292 257.888 38.647 259.646 40.0825C261.404 41.5181 262.283 43.7007 262.283 46.6304V63H257.603L256.306 59.6602H256.13C255.427 60.5391 254.709 61.2568 253.977 61.8135C253.245 62.3701 252.402 62.7803 251.45 63.0439C250.498 63.3076 249.341 63.4395 247.979 63.4395C246.528 63.4395 245.225 63.1611 244.067 62.6045C242.925 62.0479 242.024 61.1982 241.365 60.0557C240.706 58.8984 240.376 57.4336 240.376 55.6611C240.376 53.0537 241.292 51.1348 243.123 49.9043C244.954 48.6592 247.7 47.9707 251.362 47.8389L255.625 47.707V46.6304C255.625 45.3413 255.288 44.3965 254.614 43.7959C253.94 43.1953 253.003 42.895 251.802 42.895C250.615 42.895 249.451 43.0635 248.308 43.4004C247.166 43.7373 246.023 44.1621 244.88 44.6748L242.661 40.1484C243.965 39.46 245.422 38.918 247.034 38.5225C248.66 38.127 250.337 37.9292 252.065 37.9292ZM255.625 51.6182L253.032 51.7061C250.864 51.7646 249.355 52.1528 248.506 52.8706C247.671 53.5884 247.253 54.5332 247.253 55.7051C247.253 56.7305 247.554 57.4629 248.154 57.9023C248.755 58.3271 249.539 58.5396 250.505 58.5396C251.941 58.5396 253.149 58.1147 254.131 57.2651C255.127 56.4155 255.625 55.207 255.625 53.6396V51.6182ZM284.282 37.9731C286.904 37.9731 289.013 38.6909 290.61 40.1265C292.207 41.5474 293.005 43.8325 293.005 46.9819V63H286.303V48.6519C286.303 46.894 285.981 45.5684 285.336 44.6748C284.707 43.7812 283.71 43.3345 282.348 43.3345C280.297 43.3345 278.898 44.0303 278.151 45.4219C277.404 46.8135 277.031 48.8203 277.031 51.4424V63H270.329V38.4346H275.449L276.35 41.5767H276.723C277.25 40.7271 277.902 40.0386 278.679 39.5112C279.47 38.9839 280.341 38.5957 281.293 38.3467C282.26 38.0977 283.256 37.9731 284.282 37.9731ZM307.731 28.8105V44.1035C307.731 45.0264 307.694 45.9492 307.621 46.8721C307.548 47.7949 307.467 48.7178 307.379 49.6406H307.467C307.921 48.9961 308.383 48.3589 308.852 47.729C309.335 47.0991 309.848 46.4912 310.39 45.9053L317.267 38.4346H324.826L315.07 49.0913L325.419 63H317.685L310.609 53.0464L307.731 55.3535V63H301.029V28.8105H307.731Z" fill="black"/>
<defs>
<linearGradient id="paint0_linear_204_5" x1="50" y1="0" x2="50" y2="82" gradientUnits="userSpaceOnUse">
<stop stop-color="#F9B248"/>
<stop offset="1" stop-color="#F9B248" stop-opacity="0"/>
</linearGradient>
</defs>
</svg>
