<svg width="349" height="100" viewBox="0 0 349 100" fill="none" xmlns="http://www.w3.org/2000/svg">
<circle cx="50" cy="50" r="50" fill="#C4C4C4"/>
<ellipse cx="50" cy="46.5" rx="50" ry="46.5" fill="url(#paint0_linear_204_3)"/>
<path d="M31 27H61C66.5228 27 71 31.4772 71 37V39C71 44.5228 66.5228 49 61 49H31V27Z" fill="white"/>
<path d="M31 51H61C66.5228 51 71 55.4772 71 61V63C71 68.5228 66.5228 73 61 73H31V51Z" fill="white"/>
<path d="M128.491 67.4395C126.323 67.4395 124.412 66.9927 122.756 66.0991C121.101 65.2056 119.812 63.8433 118.889 62.0122C117.966 60.1812 117.505 57.874 117.505 55.0908C117.505 52.1758 117.988 49.7954 118.955 47.9497C119.937 46.0894 121.284 44.7124 122.998 43.8188C124.712 42.9253 126.66 42.4785 128.843 42.4785C130.044 42.4785 131.201 42.603 132.314 42.8521C133.442 43.0864 134.365 43.3867 135.083 43.7529L133.984 46.8071C133.252 46.5142 132.402 46.2505 131.436 46.0161C130.483 45.7817 129.59 45.6646 128.755 45.6646C127.085 45.6646 125.693 46.0234 124.58 46.7412C123.481 47.459 122.654 48.5137 122.097 49.9053C121.555 51.2969 121.284 53.0107 121.284 55.0469C121.284 56.9951 121.548 58.6577 122.075 60.0347C122.617 61.4116 123.416 62.4663 124.47 63.1987C125.54 63.9165 126.873 64.2754 128.469 64.2754C129.744 64.2754 130.894 64.1436 131.919 63.8799C132.944 63.6016 133.875 63.2793 134.709 62.9131V66.165C133.904 66.5752 133.003 66.8901 132.007 67.1099C131.025 67.3296 129.854 67.4395 128.491 67.4395ZM162.312 54.915C162.312 56.8926 162.055 58.6577 161.542 60.2104C161.03 61.7632 160.29 63.0742 159.323 64.1436C158.356 65.2129 157.185 66.0332 155.808 66.6045C154.445 67.1611 152.9 67.4395 151.171 67.4395C149.56 67.4395 148.081 67.1611 146.733 66.6045C145.4 66.0332 144.243 65.2129 143.261 64.1436C142.294 63.0742 141.54 61.7632 140.998 60.2104C140.471 58.6577 140.207 56.8926 140.207 54.915C140.207 52.2783 140.654 50.0371 141.547 48.1914C142.441 46.3311 143.715 44.9175 145.371 43.9507C147.041 42.9692 149.025 42.4785 151.325 42.4785C153.522 42.4785 155.441 42.9692 157.082 43.9507C158.737 44.9321 160.019 46.353 160.927 48.2134C161.85 50.0591 162.312 52.293 162.312 54.915ZM143.986 54.915C143.986 56.8486 144.243 58.5259 144.755 59.9468C145.268 61.3677 146.059 62.4663 147.128 63.2427C148.198 64.019 149.575 64.4072 151.259 64.4072C152.929 64.4072 154.299 64.019 155.368 63.2427C156.452 62.4663 157.25 61.3677 157.763 59.9468C158.276 58.5259 158.532 56.8486 158.532 54.915C158.532 52.9961 158.276 51.3408 157.763 49.9492C157.25 48.543 156.459 47.459 155.39 46.6973C154.321 45.9355 152.937 45.5547 151.237 45.5547C148.732 45.5547 146.894 46.3823 145.722 48.0376C144.565 49.6929 143.986 51.9854 143.986 54.915ZM173.39 42.918V67H169.743V42.918H173.39ZM171.61 33.9092C172.211 33.9092 172.724 34.1069 173.148 34.5024C173.588 34.8833 173.808 35.4839 173.808 36.3042C173.808 37.1099 173.588 37.7104 173.148 38.106C172.724 38.5015 172.211 38.6992 171.61 38.6992C170.98 38.6992 170.453 38.5015 170.028 38.106C169.618 37.7104 169.413 37.1099 169.413 36.3042C169.413 35.4839 169.618 34.8833 170.028 34.5024C170.453 34.1069 170.98 33.9092 171.61 33.9092ZM193.653 42.4785C196.51 42.4785 198.67 43.1816 200.135 44.5879C201.6 45.9795 202.333 48.2207 202.333 51.3115V67H198.729V51.5532C198.729 49.5464 198.268 48.0449 197.345 47.0488C196.437 46.0527 195.038 45.5547 193.148 45.5547C190.482 45.5547 188.607 46.3091 187.523 47.8179C186.439 49.3267 185.897 51.5166 185.897 54.3877V67H182.25V42.918H185.194L185.743 46.3896H185.941C186.454 45.54 187.105 44.8296 187.896 44.2583C188.688 43.6724 189.574 43.2329 190.555 42.9399C191.537 42.6323 192.569 42.4785 193.653 42.4785ZM211.17 34.876H221.167C225.445 34.876 228.682 35.4766 230.879 36.6777C233.077 37.8789 234.175 39.9883 234.175 43.0059C234.175 44.2217 233.978 45.3203 233.582 46.3018C233.201 47.2832 232.645 48.0889 231.912 48.7188C231.18 49.3486 230.286 49.7588 229.231 49.9492V50.1689C230.301 50.3887 231.268 50.7695 232.132 51.3115C232.996 51.8389 233.685 52.6152 234.197 53.6406C234.725 54.6514 234.988 55.999 234.988 57.6836C234.988 59.6318 234.512 61.3018 233.56 62.6934C232.608 64.085 231.246 65.1543 229.473 65.9014C227.715 66.6338 225.621 67 223.189 67H211.17V34.876ZM217.981 47.5981H221.937C223.914 47.5981 225.284 47.2905 226.045 46.6753C226.807 46.0454 227.188 45.1226 227.188 43.9067C227.188 42.6763 226.734 41.7974 225.826 41.27C224.932 40.728 223.511 40.457 221.563 40.457H217.981V47.5981ZM217.981 53.0034V61.375H222.42C224.471 61.375 225.899 60.9795 226.705 60.1885C227.51 59.3975 227.913 58.3354 227.913 57.0024C227.913 56.2114 227.737 55.5156 227.386 54.915C227.034 54.3145 226.441 53.8457 225.606 53.5088C224.786 53.1719 223.65 53.0034 222.2 53.0034H217.981ZM252.065 41.9292C255.361 41.9292 257.888 42.647 259.646 44.0825C261.404 45.5181 262.283 47.7007 262.283 50.6304V67H257.603L256.306 63.6602H256.13C255.427 64.5391 254.709 65.2568 253.977 65.8135C253.245 66.3701 252.402 66.7803 251.45 67.0439C250.498 67.3076 249.341 67.4395 247.979 67.4395C246.528 67.4395 245.225 67.1611 244.067 66.6045C242.925 66.0479 242.024 65.1982 241.365 64.0557C240.706 62.8984 240.376 61.4336 240.376 59.6611C240.376 57.0537 241.292 55.1348 243.123 53.9043C244.954 52.6592 247.7 51.9707 251.362 51.8389L255.625 51.707V50.6304C255.625 49.3413 255.288 48.3965 254.614 47.7959C253.94 47.1953 253.003 46.895 251.802 46.895C250.615 46.895 249.451 47.0635 248.308 47.4004C247.166 47.7373 246.023 48.1621 244.88 48.6748L242.661 44.1484C243.965 43.46 245.422 42.918 247.034 42.5225C248.66 42.127 250.337 41.9292 252.065 41.9292ZM255.625 55.6182L253.032 55.7061C250.864 55.7646 249.355 56.1528 248.506 56.8706C247.671 57.5884 247.253 58.5332 247.253 59.7051C247.253 60.7305 247.554 61.4629 248.154 61.9023C248.755 62.3271 249.539 62.5396 250.505 62.5396C251.941 62.5396 253.149 62.1147 254.131 61.2651C255.127 60.4155 255.625 59.207 255.625 57.6396V55.6182ZM284.282 41.9731C286.904 41.9731 289.013 42.6909 290.61 44.1265C292.207 45.5474 293.005 47.8325 293.005 50.9819V67H286.303V52.6519C286.303 50.894 285.981 49.5684 285.336 48.6748C284.707 47.7812 283.71 47.3345 282.348 47.3345C280.297 47.3345 278.898 48.0303 278.151 49.4219C277.404 50.8135 277.031 52.8203 277.031 55.4424V67H270.329V42.4346H275.449L276.35 45.5767H276.723C277.25 44.7271 277.902 44.0386 278.679 43.5112C279.47 42.9839 280.341 42.5957 281.293 42.3467C282.26 42.0977 283.256 41.9731 284.282 41.9731ZM307.731 32.8105V48.1035C307.731 49.0264 307.694 49.9492 307.621 50.8721C307.548 51.7949 307.467 52.7178 307.379 53.6406H307.467C307.921 52.9961 308.383 52.3589 308.852 51.729C309.335 51.0991 309.848 50.4912 310.39 49.9053L317.267 42.4346H324.826L315.07 53.0913L325.419 67H317.685L310.609 57.0464L307.731 59.3535V67H301.029V32.8105H307.731Z" fill="url(#paint1_linear_204_3)"/>
<defs>
<linearGradient id="paint0_linear_204_3" x1="50" y1="0" x2="50" y2="82" gradientUnits="userSpaceOnUse">
<stop stop-color="#FDFDFD"/>
<stop offset="1" stop-color="#AFAFAF" stop-opacity="0.69"/>
</linearGradient>
<linearGradient id="paint1_linear_204_3" x1="232" y1="23" x2="232" y2="77" gradientUnits="userSpaceOnUse">
<stop stop-color="#FDFDFD"/>
<stop offset="1" stop-color="#AFAFAF"/>
</linearGradient>
</defs>
</svg>
