<svg width="77" height="77" viewBox="0 0 77 77" fill="none" xmlns="http://www.w3.org/2000/svg">
<path d="M77 25.3986C77 24.1611 76.505 22.9237 75.6388 22.0575L54.9735 1.39213C53.1173 -0.464042 50.1474 -0.464042 48.2913 1.39213L40.8666 8.81679L8.81679 40.8666L1.39213 48.2913C-0.464042 50.1474 -0.464042 53.1173 1.39213 54.9735L22.0574 75.6388C22.9236 76.505 24.1611 77 25.3985 77C26.636 77 27.8734 76.505 28.7397 75.6388L36.1643 68.2141L68.0904 36.2881C68.0904 36.2881 68.0904 36.2881 68.2141 36.2881C68.3379 36.2881 68.2141 36.2881 68.2141 36.1643L75.6388 28.7397C76.505 27.7497 77 26.636 77 25.3986ZM35.1743 65.6155C29.4821 60.7895 21.0675 60.7895 15.3752 65.6155L11.2917 61.5319C16.1177 55.8397 16.1177 47.4251 11.2917 41.7328L41.6091 11.4154C44.4552 13.8903 47.92 15.004 51.5086 15.004C55.0972 15.004 58.5621 13.7666 61.4082 11.2917L65.4917 15.3753C63.1406 18.0976 61.7794 21.6862 61.7794 25.2748C61.7794 28.9871 63.0168 32.452 65.368 35.1744L35.1743 65.6155ZM50.0237 3.12455C50.5187 2.62957 51.0137 2.50583 51.6324 2.50583C52.2511 2.50583 52.7461 2.75332 53.241 3.12455L59.7995 9.68301C55.0972 13.6428 48.1675 13.6428 43.4652 9.68301L50.0237 3.12455ZM3.00079 50.1474L9.55927 43.589C13.3953 48.2913 13.3953 55.221 9.55927 59.9233L3.00079 53.3648C2.13458 52.4986 2.13458 51.0137 3.00079 50.1474ZM26.8835 74.0301C26.0173 74.8963 24.5323 74.8963 23.6661 74.0301L17.1076 67.4717C21.8099 63.5118 28.7396 63.5118 33.4419 67.4717L26.8835 74.0301ZM73.9064 27.0072L67.3479 33.5657C65.4917 31.2145 64.3781 28.3684 64.3781 25.3986C64.3781 22.4287 65.368 19.4588 67.3479 17.2314L73.9064 23.7899C74.2776 24.1611 74.5251 24.7798 74.5251 25.3986C74.5251 26.0173 74.2776 26.5123 73.9064 27.0072Z" fill="white"/>
<path d="M39.7538 24.2848C39.0113 24.2848 38.5163 24.7798 38.3926 25.3985C38.3926 26.0172 38.8876 26.6359 39.5063 26.7597C42.2287 27.0072 44.8273 28.2446 46.8072 30.2245C51.3857 34.8031 51.3857 42.3515 46.8072 46.93C44.5798 49.1574 41.6099 50.3949 38.5163 50.3949C35.4227 50.3949 32.4528 49.1574 30.2254 46.93C25.6469 42.3515 25.6469 34.8031 30.2254 30.2245C30.7204 29.7295 31.3391 29.2346 32.0816 28.7396C32.7003 28.3684 32.8241 27.6259 32.4529 27.0072C32.0816 26.3885 31.3391 26.2647 30.7204 26.6359C29.9779 27.1309 29.2355 27.7496 28.493 28.3684C22.9245 33.9369 22.9245 42.9702 28.493 48.5387C31.2154 51.2611 34.804 52.746 38.6401 52.746C42.4762 52.746 46.0647 51.2611 48.7871 48.5387C54.3556 42.9702 54.3556 33.9369 48.7871 28.3684C46.1885 26.141 42.9711 24.656 39.7538 24.2848Z" fill="white"/>
<path d="M34.4311 27.3784C34.5548 27.3784 34.6786 27.3784 34.8023 27.3784C35.2973 27.2546 35.7923 27.1309 36.411 27.0072C37.0297 26.8834 37.5247 26.2647 37.401 25.5222C37.2772 24.9035 36.6585 24.4085 35.916 24.5323C35.2973 24.656 34.6786 24.7798 34.0599 25.0272C33.4411 25.2747 33.0699 25.8935 33.3174 26.6359C33.4411 27.0072 33.9361 27.3784 34.4311 27.3784Z" fill="white"/>
<path d="M33.5663 40.1242C35.175 41.7329 37.1548 40.7429 38.7635 39.753L40.7434 41.7329C39.8772 42.4753 38.6398 42.9703 37.6498 43.2178L38.3923 45.3215C39.506 45.1977 40.9909 44.4553 42.2284 43.3416L43.4658 44.579L44.5795 43.4653L43.3421 42.1041C44.9508 40.0005 44.827 38.1443 43.5896 36.9068C41.9809 35.2982 40.1247 36.2881 38.5161 37.2781L36.5361 35.2982C37.1549 34.8032 38.0211 34.432 38.8873 34.0607L38.0211 32.0808C37.0311 32.3283 35.9174 32.947 34.9275 33.6895L33.69 32.452L32.5763 33.5657L33.8137 34.8032C32.0813 36.9068 32.3288 38.8868 33.5663 40.1242ZM41.7334 38.8868C42.1046 39.258 42.1046 39.8767 41.7334 40.4954L40.1247 38.8868C40.8672 38.5155 41.3622 38.5155 41.7334 38.8868ZM35.2987 36.4119L36.9074 38.0205C36.2886 38.3918 35.6699 38.5155 35.2987 38.1443C34.9275 37.7731 34.8037 37.1543 35.2987 36.4119Z" fill="white"/>
<path d="M23.5428 54.7259C24.1578 54.7259 24.6565 54.2273 24.6565 53.6122C24.6565 52.9972 24.1578 52.4985 23.5428 52.4985C22.9277 52.4985 22.4291 52.9972 22.4291 53.6122C22.4291 54.2273 22.9277 54.7259 23.5428 54.7259Z" fill="white"/>
<path d="M52.622 22.7999C52.127 23.2949 52.127 24.0374 52.622 24.4086C53.1169 24.7798 53.8594 24.9036 54.2306 24.4086C54.7256 23.9136 54.7256 23.1712 54.2306 22.7999C53.8594 22.305 53.1169 22.305 52.622 22.7999Z" fill="white"/>
</svg>
