<svg width="77" height="78" viewBox="0 0 77 78" fill="none" xmlns="http://www.w3.org/2000/svg">
<path d="M77 26.3778C77 25.1409 76.505 23.9039 75.6388 23.038L54.9735 2.38089C53.1173 0.525461 50.1474 0.525461 48.2913 2.38089L40.8666 9.80262L8.81679 41.8397L1.39213 49.2615C-0.464042 51.1169 -0.464042 54.0856 1.39213 55.941L22.0574 76.5982C22.9236 77.4641 24.1611 77.9588 25.3985 77.9588C26.636 77.9588 27.8734 77.4641 28.7397 76.5982L36.1643 69.1765L68.0904 37.263C68.0904 37.263 68.0904 37.263 68.2141 37.263C68.3379 37.263 68.2141 37.263 68.2141 37.1393L75.6388 29.7176C76.505 28.728 77 27.6148 77 26.3778ZM35.1743 66.5788C29.4821 61.7547 21.0675 61.7547 15.3752 66.5788L11.2917 62.4969C16.1177 56.8069 16.1177 48.3956 11.2917 42.7056L41.6091 12.4002C44.4552 14.8741 47.92 15.9874 51.5086 15.9874C55.0972 15.9874 58.5621 14.7504 61.4082 12.2765L65.4917 16.3585C63.1406 19.0798 61.7794 22.667 61.7794 26.2541C61.7794 29.965 63.0168 33.4285 65.368 36.1498L35.1743 66.5788ZM50.0237 4.11263C50.5187 3.61785 51.0137 3.49415 51.6324 3.49415C52.2511 3.49415 52.7461 3.74154 53.241 4.11263L59.7995 10.6685C55.0972 14.6267 48.1675 14.6267 43.4652 10.6685L50.0237 4.11263ZM3.00079 51.1169L9.55927 44.561C13.3953 49.2615 13.3953 56.1884 9.55927 60.8888L3.00079 54.333C2.13458 53.4671 2.13458 51.9828 3.00079 51.1169ZM26.8835 74.9901C26.0173 75.856 24.5323 75.856 23.6661 74.9901L17.1076 68.4343C21.8099 64.476 28.7396 64.476 33.4419 68.4343L26.8835 74.9901ZM73.9064 27.9859L67.3479 34.5417C65.4917 32.1915 64.3781 29.3465 64.3781 26.3778C64.3781 23.4091 65.368 20.4404 67.3479 18.2139L73.9064 24.7698C74.2776 25.1409 74.5251 25.7593 74.5251 26.3778C74.5251 26.9963 74.2776 27.4911 73.9064 27.9859Z" fill="black"/>
<path d="M39.7538 25.2645C39.0113 25.2645 38.5163 25.7593 38.3926 26.3778C38.3926 26.9963 38.8876 27.6147 39.5063 27.7384C42.2287 27.9858 44.8273 29.2228 46.8072 31.2019C51.3857 35.7786 51.3857 43.3241 46.8072 47.9008C44.5798 50.1273 41.6099 51.3643 38.5163 51.3643C35.4227 51.3643 32.4528 50.1273 30.2254 47.9008C25.6469 43.3241 25.6469 35.7786 30.2254 31.2019C30.7204 30.7071 31.3391 30.2123 32.0816 29.7176C32.7003 29.3465 32.8241 28.6043 32.4529 27.9858C32.0816 27.3674 31.3391 27.2437 30.7204 27.6147C29.9779 28.1095 29.2355 28.728 28.493 29.3465C22.9245 34.9128 22.9245 43.9425 28.493 49.5088C31.2154 52.2301 34.804 53.7145 38.6401 53.7145C42.4762 53.7145 46.0647 52.2301 48.7871 49.5088C54.3556 43.9425 54.3556 34.9128 48.7871 29.3465C46.1885 27.12 42.9711 25.6356 39.7538 25.2645Z" fill="black"/>
<path d="M34.4311 28.3569C34.5548 28.3569 34.6786 28.3569 34.8023 28.3569C35.2973 28.2332 35.7923 28.1095 36.411 27.9858C37.0297 27.8622 37.5247 27.2437 37.401 26.5015C37.2772 25.883 36.6585 25.3882 35.916 25.5119C35.2973 25.6356 34.6786 25.7593 34.0599 26.0067C33.4411 26.2541 33.0699 26.8726 33.3174 27.6148C33.4411 27.9858 33.9361 28.3569 34.4311 28.3569Z" fill="black"/>
<path d="M33.5663 41.0976C35.175 42.7057 37.1548 41.7161 38.7635 40.7265L40.7434 42.7056C39.8772 43.4478 38.6398 43.9426 37.6498 44.19L38.3923 46.2928C39.506 46.1691 40.9909 45.4269 42.2284 44.3137L43.4658 45.5506L44.5795 44.4374L43.3421 43.0767C44.9508 40.9739 44.827 39.1185 43.5896 37.8815C41.9809 36.2735 40.1247 37.263 38.5161 38.2526L36.5361 36.2735C37.1549 35.7787 38.0211 35.4076 38.8873 35.0365L38.0211 33.0574C37.0311 33.3048 35.9174 33.9233 34.9275 34.6654L33.69 33.4285L32.5763 34.5417L33.8137 35.7787C32.0813 37.8815 32.3288 39.8607 33.5663 41.0976ZM41.7334 39.8607C42.1046 40.2317 42.1046 40.8502 41.7334 41.4687L40.1247 39.8607C40.8672 39.4896 41.3622 39.4896 41.7334 39.8607ZM35.2987 37.3867L36.9074 38.9948C36.2886 39.3659 35.6699 39.4896 35.2987 39.1185C34.9275 38.7474 34.8037 38.1289 35.2987 37.3867Z" fill="black"/>
<path d="M23.5428 55.6936C24.1578 55.6936 24.6565 55.1952 24.6565 54.5804C24.6565 53.9655 24.1578 53.4671 23.5428 53.4671C22.9277 53.4671 22.4291 53.9655 22.4291 54.5804C22.4291 55.1952 22.9277 55.6936 23.5428 55.6936Z" fill="black"/>
<path d="M52.622 23.7802C52.127 24.275 52.127 25.0172 52.622 25.3882C53.1169 25.7593 53.8594 25.883 54.2306 25.3882C54.7256 24.8935 54.7256 24.1513 54.2306 23.7802C53.8594 23.2854 53.1169 23.2854 52.622 23.7802Z" fill="black"/>
</svg>
