<svg width="78" height="78" viewBox="0 0 78 78" fill="none" xmlns="http://www.w3.org/2000/svg">
<path d="M7.47756 61.5314C4.19792 56.8087 2.62371 51.1677 2.62371 45.3955C2.62371 29.5221 15.4799 16.5347 31.4846 16.5347C37.1256 16.5347 42.5042 18.1089 47.0957 21.1262C47.7516 21.5197 48.5387 21.3885 48.9323 20.7326C49.3258 20.0767 49.1946 19.2896 48.5387 18.896C43.4225 15.6164 37.5191 13.7798 31.4846 13.7798C14.1681 13.7798 0 27.8167 0 45.2644C0 51.5613 1.83661 57.5958 5.37862 62.8432C5.64099 63.2368 6.03453 63.368 6.42809 63.368C6.69046 63.368 6.95284 63.2368 7.21521 63.1056C7.73996 62.9744 7.87112 62.1873 7.47756 61.5314Z" fill="#151515"/>
<path d="M55.8845 27.8167C55.2286 28.2103 55.0974 28.9974 55.4909 29.6533C58.6394 34.376 60.2136 39.7546 60.2136 45.5268C60.2136 61.4003 47.3574 74.3876 31.3527 74.3876C23.088 74.3876 15.2169 70.8456 9.70711 64.5487C9.18236 64.024 8.39526 63.8928 7.87051 64.4175C7.34577 64.9423 7.21458 65.7294 7.73932 66.2541C13.7739 73.0758 22.3009 77.0114 31.3527 77.0114C48.6693 77.0114 62.8373 62.9745 62.8373 45.5268C62.8373 39.3611 61.0007 33.4577 57.7211 28.2103C57.1963 27.5543 56.4092 27.4232 55.8845 27.8167Z" fill="#151515"/>
<path d="M40.9299 30.5716C41.3235 29.9157 41.0611 29.1286 40.4052 28.735C37.6503 27.292 34.5018 26.5049 31.3534 26.5049C20.9897 26.5049 12.4626 35.032 12.4626 45.3956C12.4626 55.7593 20.9897 64.2864 31.3534 64.2864C41.717 64.2864 50.2441 55.7593 50.2441 45.3956C50.2441 42.116 49.3258 38.8363 47.7516 35.9503C47.358 35.2943 46.5709 35.1631 45.915 35.4255C45.2591 35.8191 45.1279 36.6062 45.3903 37.2621C46.8333 39.7546 47.4892 42.5095 47.4892 45.3956C47.4892 54.3163 40.1428 61.6626 31.2222 61.6626C22.3016 61.6626 14.9552 54.3163 14.9552 45.3956C14.9552 36.475 22.3016 29.1286 31.2222 29.1286C33.9771 29.1286 36.6008 29.7845 38.9621 31.0964C39.7492 31.4899 40.5364 31.2276 40.9299 30.5716Z" fill="#151515"/>
<path d="M31.3544 40.8041C32.1415 40.8041 32.6662 40.2794 32.6662 39.4923C32.6662 38.7052 32.1415 38.1804 31.3544 38.1804C27.4188 38.1804 24.1392 41.4601 24.1392 45.3956C24.1392 49.3312 27.4188 52.6108 31.3544 52.6108C35.2899 52.6108 38.5696 49.3312 38.5696 45.3956C38.5696 44.6085 38.0448 44.0838 37.2577 44.0838C36.4706 44.0838 35.9459 44.6085 35.9459 45.3956C35.9459 47.8882 33.8469 49.9871 31.3544 49.9871C28.8618 49.9871 26.7629 47.8882 26.7629 45.3956C26.7629 42.9031 28.8618 40.8041 31.3544 40.8041Z" fill="#151515"/>
<path d="M76.8741 11.9432C76.6117 11.4185 76.2181 11.1561 75.6934 11.1561H65.8545V1.31718C65.8545 0.792433 65.5921 0.267688 65.0674 0.136502C64.5426 -0.125869 64.0179 0.00531257 63.6243 0.39887L55.0973 8.66357C54.8349 8.92594 54.7037 9.3195 54.7037 9.58187V20.6015L30.4343 44.7396C29.9096 45.2644 29.9096 46.0515 30.4343 46.5762C30.6967 46.8386 31.0903 46.9698 31.3526 46.9698C31.615 46.9698 32.0086 46.8386 32.271 46.5762L56.5403 22.3069H67.4287C67.8223 22.3069 68.0847 22.1757 68.347 21.9133L76.6117 13.3863C77.0053 12.9927 77.1365 12.3368 76.8741 11.9432ZM63.0996 4.20326V11.812L59.0328 15.8788L57.1962 17.7154V9.97543L63.0996 4.20326ZM66.904 19.6832H59.164L63.8867 14.9605L64.0179 14.8293L65.0674 13.7798H72.6761L66.904 19.6832Z" fill="#151515"/>
</svg>
