<svg width="102" height="77" viewBox="0 0 102 77" fill="none" xmlns="http://www.w3.org/2000/svg">
<path d="M96.6656 0H5.33439C2.42472 0 0 2.42472 0 5.33439V59.6482C0 62.5578 2.42472 64.9826 5.33439 64.9826H37.5024V72.9033H28.6117C27.6418 72.9033 26.9952 73.5499 26.9952 74.5198C26.9952 75.4897 27.6418 76.1363 28.6117 76.1363H38.7956H38.9572H63.0428H63.2044H73.3883C74.3582 76.1363 75.0048 75.4897 75.0048 74.5198C75.0048 73.5499 74.3582 72.9033 73.3883 72.9033H64.4976V64.9826H96.6656C99.5753 64.9826 102 62.5578 102 59.6482V5.33439C102 2.42472 99.5753 0 96.6656 0ZM5.33439 3.23296H96.6656C97.7971 3.23296 98.767 4.20285 98.767 5.33439V45.0998H3.23296V5.33439C3.23296 4.20285 4.20285 3.23296 5.33439 3.23296ZM61.4263 72.9033H40.5737V64.9826H61.4263V72.9033ZM96.6656 61.588H63.0428H38.9572H5.33439C4.20285 61.588 3.23296 60.6181 3.23296 59.4865V48.1712H98.767V59.4865C98.767 60.7797 97.7971 61.588 96.6656 61.588Z" fill="black"/>
<path d="M50.9181 51.7274C49.4633 51.7274 48.4934 52.859 48.4934 54.1521C48.4934 55.4453 49.6249 56.5769 50.9181 56.5769C52.373 56.5769 53.3429 55.4453 53.3429 54.1521C53.3429 52.859 52.373 51.7274 50.9181 51.7274Z" fill="black"/>
</svg>
